Coordinates
version=1
nRows=10
nColumns=46
inDegrees=yes

Units are S.I. units (second, meters, Newtons, ...)
Angles are in degrees.

endheader
time	pelvis_tilt	pelvis_list	pelvis_rotation	pelvis_tx	pelvis_ty	pelvis_tz	bb_angle	bb_tx	bb_ty	bb_tz	hip_flexion_r	hip_adduction_r	hip_rotation_r	knee_angle_r	knee_angle_r_beta	ankle_angle_r	subtalar_angle_r	mtp_angle_r	crank_angle_r	hip_flexion_l	hip_adduction_l	hip_rotation_l	knee_angle_l	knee_angle_l_beta	ankle_angle_l	subtalar_angle_l	mtp_angle_l	crank_angle_l	lumbar_extension	lumbar_bending	lumbar_rotation	arm_flex_r	arm_add_r	arm_rot_r	elbow_flex_r	pro_sup_r	wrist_flex_r	wrist_dev_r	arm_flex_l	arm_add_l	arm_rot_l	elbow_flex_l	pro_sup_l	wrist_flex_l	wrist_dev_l
      0.00000000	    -11.03461121	     -4.49370748	     -0.47331384	      0.07274669	      1.09777311	     -0.27585097	      0.00000000	      0.50000000	      0.00000000	      0.25000000	     82.55915995	     -3.31818843	     -1.44236596	    102.38491008	      1.78695379	     14.56248158	     -5.55376296	      0.00000000	      0.00000000	     37.59549980	    -11.43258426	     -3.11220004	     53.86811628	      0.94017599	      8.53600443	     -0.33759292	      0.00000000	      0.00000000	    -52.09534874	      1.27665052	      4.05034424	     89.08856818	    -11.33404788	     44.34784148	     26.17205646	     23.54524074	      0.00000000	      0.00000000	     89.03703349	    -10.90831723	     25.98609291	     46.99281009	     24.76582269	      0.00000000	      0.00000000
      0.00500000	    -10.76111090	     -4.50172801	     -0.40536768	      0.07282248	      1.09832397	     -0.27598664	      0.00000000	      0.50000000	      0.00000000	      0.25000000	     82.22912250	     -3.41481377	     -1.50978885	    102.39179219	      1.78707390	     14.63000411	     -5.50919473	      0.00000000	      0.00000000	     37.25904752	    -11.43145107	     -3.15704074	     53.77238105	      0.93850510	      8.56233506	     -0.24177712	      0.00000000	      0.00000000	    -52.51523415	      1.31273386	      4.03983602	     89.01651522	    -11.48206870	     42.53333290	     26.99314757	     25.51673455	      0.00000000	      0.00000000	     89.02554621	    -10.89891700	     25.43022750	     47.19301529	     26.64371254	      0.00000000	      0.00000000
      0.01000000	    -11.03046990	     -4.46984516	     -0.46945809	      0.07271614	      1.09775677	     -0.27578603	      0.00000000	      0.50000000	      0.00000000	      0.25000000	     82.56899164	     -3.32444976	     -1.41309113	    102.40293553	      1.78726839	     14.57152627	     -5.51929637	      0.00000000	      0.00000000	     37.59400423	    -11.41357023	     -3.12094910	     53.86857114	      0.94018393	      8.52074008	     -0.33988029	      0.00000000	      0.00000000	    -52.09717194	      1.24628113	      4.09626813	     89.05467459	    -11.14168288	     42.95488446	     25.64299448	     26.26341345	      0.00000000	      0.00000000	     89.06776582	    -10.85455733	     26.04298464	     46.42363049	     27.38617880	      0.00000000	      0.00000000
      0.01500000	    -11.12106761	     -4.54292205	     -0.41906843	      0.07263332	      1.09772726	     -0.27592631	      0.00000000	      0.50000000	      0.00000000	      0.25000000	     82.62399617	     -3.37157428	     -1.48868523	    102.38523858	      1.78695952	     14.62919753	     -5.48820218	      0.00000000	      0.00000000	     37.77268414	    -11.44479423	     -3.00983219	     53.95206955	      0.94164125	      8.47390082	     -0.32299089	      0.00000000	      0.00000000	    -52.00912205	      1.35869273	      4.09289728	     89.05630713	    -11.02310366	     42.41498602	     25.35053052	     27.16900216	      0.00000000	      0.00000000	     89.08125829	    -10.89775751	     25.81784863	     46.56971208	     28.56800940	      0.00000000	      0.00000000
      0.02000000	    -11.07730787	     -4.48360341	     -0.43654660	      0.07256095	      1.09778809	     -0.27578887	      0.00000000	      0.50000000	      0.00000000	      0.25000000	     82.62651898	     -3.36007230	     -1.42150863	    102.42238066	      1.78760777	     14.59389213	     -5.50722402	      0.00000000	      0.00000000	     37.72093410	    -11.42134824	     -3.08551145	     53.95788283	      0.94174271	      8.44190137	     -0.35283814	      0.00000000	      0.00000000	    -52.05828986	      1.34888531	      3.68260696	     89.16024376	    -10.79861641	     44.04510410	     24.63403171	     30.37270220	      0.00000000	      0.00000000	     88.99467985	    -11.63542233	     25.65750746	     46.56783290	     31.38847808	      0.00000000	      0.00000000
      0.02500000	    -10.98672447	     -4.53787394	     -0.35011780	      0.07254091	      1.09799226	     -0.27597872	      0.00000000	      0.50000000	      0.00000000	      0.25000000	     82.49286237	     -3.45618168	     -1.52820347	    102.42269747	      1.78761330	     14.67199472	     -5.65514592	      0.00000000	      0.00000000	     37.63167275	    -11.39561918	     -2.95844258	     53.93184281	      0.94128823	      8.51499396	     -0.36809641	      0.00000000	      0.00000000	    -52.28764619	      1.43056896	      3.79106157	     89.03904195	    -11.31154660	     42.48203985	     26.00611632	     31.25009394	      0.00000000	      0.00000000	     88.93497097	    -11.52050658	     24.91468098	     47.34622749	     32.23743070	      0.00000000	      0.00000000
      0.03000000	    -10.84992453	     -4.51862127	     -0.42371597	      0.07263471	      1.09836029	     -0.27580405	      0.00000000	      0.50000000	      0.00000000	      0.25000000	     82.32224019	     -3.37230799	     -1.48401941	    102.40225728	      1.78725655	     14.69371845	     -5.45439293	      0.00000000	      0.00000000	     37.40981464	    -11.46845654	     -3.09800092	     53.83148366	      0.93953663	      8.48204360	     -0.13641647	      0.00000000	      0.00000000	    -52.39447554	      1.32677711	      4.08364232	     89.03488884	    -11.37153648	     41.67869310	     25.63665720	     31.89067487	      0.00000000	      0.00000000	     89.05422377	    -11.05882348	     25.10729722	     46.40338826	     32.83034463	      0.00000000	      0.00000000
      0.03500000	    -10.92220979	     -4.52803671	     -0.41042819	      0.07260322	      1.09826471	     -0.27579272	      0.00000000	      0.50000000	      0.00000000	      0.25000000	     82.39379837	     -3.39338459	     -1.51015874	    102.38477630	      1.78695145	     14.68900966	     -5.44243414	      0.00000000	      0.00000000	     37.50325617	    -11.47073690	     -3.09643515	     53.83312633	      0.93956530	      8.47795773	     -0.14331190	      0.00000000	      0.00000000	    -52.29057331	      1.34071738	      4.10797604	     89.04107166	    -11.30576626	     41.55392092	     25.33266808	     32.10691971	      0.00000000	      0.00000000	     89.07471537	    -10.94418163	     25.12150586	     46.16040680	     33.06581587	      0.00000000	      0.00000000
      0.04000000	    -11.12579249	     -4.55068399	     -0.40867424	      0.07248189	      1.09781518	     -0.27571308	      0.00000000	      0.50000000	      0.00000000	      0.25000000	     82.65037974	     -3.37352535	     -1.52074554	    102.38737591	      1.78699682	     14.53995413	     -5.64068706	      0.00000000	      0.00000000	     37.79758058	    -11.47861486	     -3.01878607	     53.94132237	      0.94145368	      8.42172685	     -0.24633166	      0.00000000	      0.00000000	    -51.99454761	      1.38013384	      3.94455258	     89.08019158	    -10.51404890	     40.50374866	     24.00153534	     33.53800060	      0.00000000	      0.00000000	     89.06792471	    -11.15865533	     25.26885642	     45.57647987	     34.86530249	      0.00000000	      0.00000000
      0.04500000	    -10.96930460	     -4.47977138	     -0.45231515	      0.07257292	      1.09817349	     -0.27566914	      0.00000000	      0.50000000	      0.00000000	      0.25000000	     82.46546168	     -3.35671654	     -1.43884104	    102.38530656	      1.78696071	     14.67811222	     -5.44287054	      0.00000000	      0.00000000	     37.53943822	    -11.45040611	     -3.13280667	     53.83434448	      0.93958656	      8.46240040	     -0.15397753	      0.00000000	      0.00000000	    -52.21439846	      1.25775077	      3.99846648	     89.04446876	    -10.81845312	     40.25858189	     24.51221009	     34.00767459	      0.00000000	      0.00000000	     89.08571813	    -11.06929477	     25.14894815	     45.66558094	     35.26241176	      0.00000000	      0.00000000
